<svg height="200" width="220">
  <path style="fill:#000000;stroke-width:0.52916348" d="m 189.05665,131.04947 c -0.62455,-0.62454 0.71304,-1.66622 1.78096,-1.38696 0.83418,0.21813 1.25946,-0.22146 2.13999,-2.21197 l 1.0989,-2.48423 -2.20443,-6.00995 c -1.39602,-3.80594 -2.62456,-6.30355 -3.35007,-6.81058 -1.07658,-0.75239 -0.94626,-0.80233 2.16165,-0.82843 1.87061,-0.016 3.30731,0.20212 3.30731,0.50142 0,0.29103 -0.47626,0.52915 -1.05834,0.52915 -0.58208,0 -1.05833,0.1644 -1.05833,0.36537 0,0.81629 2.88627,9.15949 3.16867,9.15949 0.49454,0 3.21405,-8.51468 2.88799,-9.04223 -0.164,-0.26543 -0.64142,-0.48263 -1.0608,-0.48263 -0.41938,0 -0.76252,-0.23812 -0.76252,-0.52915 0,-0.29104 1.19064,-0.52916 2.64584,-0.52916 2.58989,0 3.57985,0.69063 1.69605,1.18325 -0.66765,0.17459 -1.87201,2.66866 -4.05435,8.39597 -1.70751,4.48118 -3.45061,8.68338 -3.87357,9.33821 -0.72609,1.12412 -2.70269,1.60467 -3.46495,0.84243 z M 14.60298,124.08809 c 0,-0.29906 0.698864,-0.69723 1.553031,-0.88483 2.096179,-0.46039 2.343732,-1.87569 1.871207,-10.698 l -0.383591,-7.16184 -2.426651,0.33262 c -1.724095,0.23629 -2.950468,0.82896 -4.235937,2.04705 l -1.8092889,1.71447 0.359935,-1.51694 c 0.19796,-0.8343 0.4972549,-2.20348 0.6650899,-3.04265 0.323925,-1.6196 0.690648,-1.85461 1.551174,-0.99411 0.78539,0.78537 14.898631,0.86561 15.675142,0.0892 1.074068,-1.07406 1.301485,-0.70193 1.399243,2.28963 0.104641,3.20185 -0.439279,3.75506 -1.341609,1.36456 -0.49231,-1.30426 -0.964207,-1.6029 -3.019938,-1.91115 -1.34005,-0.20096 -2.737036,-0.2504 -3.104415,-0.1098 -0.508597,0.19459 -0.630523,2.27512 -0.511053,8.72075 l 0.1569,8.46526 1.695183,0.54463 c 1.490818,0.47897 1.205995,0.55113 -2.362592,0.59865 -2.231774,0.0298 -4.434436,0.1986 -4.894803,0.37521 -0.460368,0.1766 -0.837033,0.0766 -0.837033,-0.22253 z m 37.992738,-0.59869 c -1.17673,-0.92561 -1.44871,-0.95951 -2.33216,-0.29072 -0.55004,0.41639 -1.867564,0.76465 -2.927835,0.77391 -4.254287,0.0372 -2.4992,-3.879 3.102805,-6.92332 1.35216,-0.73481 1.53795,-1.09356 1.32338,-2.55552 -0.13728,-0.93539 -0.57754,-1.82654 -0.97833,-1.98033 -1.47278,-0.56516 -3.263018,0.34753 -3.820942,1.94795 -0.304984,0.87487 -0.924094,1.59067 -1.375797,1.59067 -0.978129,0 -1.008619,-0.23241 -0.230177,-1.75455 1.010445,-1.97579 2.718933,-2.98368 5.078836,-2.99612 2.91496,-0.016 3.32592,0.80325 3.32592,6.62531 v 4.58999 l 1.37471,-0.34501 c 1.62537,-0.40794 1.55125,0.53327 -0.1299,1.64949 -0.93725,0.62231 -1.25282,0.57887 -2.41052,-0.33175 z m -2.12705,-1.38204 c 0.82813,-0.58004 1.17608,-1.3628 1.17608,-2.64579 0,-2.1817 -0.45572,-2.26078 -2.60524,-0.45211 -2.936084,2.47051 -1.651282,5.25548 1.42916,3.0979 z m 16.78633,1.68419 c -1.97856,-0.87019 -2.81568,-1.86071 -3.45425,-4.08722 -1.16572,-4.06456 1.97001,-8.65525 5.91206,-8.65525 1.75517,0 2.42942,0.31425 3.68198,1.71609 0.84334,0.94385 1.53335,1.95045 1.53335,2.23689 0,0.29616 -1.76911,0.52431 -4.10105,0.52893 -4.22059,0.008 -5.25616,0.30154 -5.11095,1.44708 0.0461,0.3638 0.11362,1.10293 0.15,1.6425 0.0364,0.53957 0.65009,1.61111 1.3638,2.3812 1.52789,1.6486 4.34374,1.88887 6.3939,0.54557 1.79412,-1.17552 1.65509,0.006 -0.1509,1.28195 -2.02174,1.42897 -4.34076,1.78785 -6.21793,0.96226 z m 4.83853,-9.5983 c 0.44109,-1.14948 -0.7741,-2.37448 -2.35546,-2.37448 -1.29068,0 -3.80579,1.80947 -3.80579,2.73804 0,0.24029 1.31717,0.43691 2.92703,0.43691 2.12461,0 3.01125,-0.21944 3.23422,-0.80047 z m 6.15942,9.97702 c -0.84394,-0.1798 -1.27011,-0.76681 -1.51874,-2.09209 -0.4541,-2.42051 0.0297,-2.81272 1.04577,-0.84785 1.18019,2.28219 3.7724,3.01857 5.07998,1.44306 1.22653,-1.47786 0.20434,-3.1285 -2.87152,-4.63703 -3.33379,-1.63502 -4.15272,-3.24904 -2.74138,-5.40299 1.69233,-2.58276 7.20611,-2.20386 7.20611,0.4952 0,1.68605 -0.36882,1.68255 -1.70503,-0.016 -1.46646,-1.86427 -3.78137,-1.63442 -4.01605,0.39873 -0.1406,1.21812 0.1704,1.59638 2.11669,2.57516 1.2548,0.63104 2.69819,1.51366 3.20751,1.96142 1.23221,1.08324 1.19471,3.94704 -0.0666,5.08852 -1.05449,0.95429 -3.79321,1.44792 -5.73668,1.03399 z m 39.180872,-0.4238 c -4.59338,-1.99799 -5.01104,-9.43456 -0.65633,-11.68643 1.80083,-0.93124 6.37626,-1.01662 7.25744,-0.13539 1.70321,1.70315 -0.21968,2.73152 -2.24426,1.20022 -2.48901,-1.88255 -5.03028,-0.2083 -5.41442,3.56719 -0.45778,4.49927 2.82323,7.27737 6.5154,5.51673 2.28541,-1.08982 2.62167,-1.08774 1.71078,0.01 -0.77482,0.93429 -3.68524,2.31289 -4.81031,2.27853 -0.37314,-0.012 -1.43438,-0.34951 -2.3583,-0.75139 z m 24.37488,0.25244 c -3.46231,-1.39562 -4.58747,-6.96034 -2.02346,-10.00744 1.64496,-1.95487 4.34823,-2.81293 6.71955,-2.13284 0.93839,0.26911 1.76725,0.48929 1.84193,0.48929 0.0746,0 0.1358,-1.68914 0.1358,-3.75365 0,-3.30863 -0.1254,-3.78646 -1.05832,-4.0304 -1.30381,-0.34095 -1.39803,-1.209 -0.1322,-1.21888 0.50932,-0.004 1.46182,-0.1508 2.11666,-0.32629 l 1.19064,-0.31906 v 10.11573 c 0,9.76296 0.037,10.11573 1.05833,10.11573 0.58208,0 1.05834,0.23812 1.05834,0.52916 0,0.29103 -0.41672,0.53241 -0.92604,0.53639 -0.50932,0.004 -1.46183,0.1508 -2.11667,0.32629 -0.88298,0.23662 -1.19064,0.0932 -1.19064,-0.55499 0,-0.66183 -0.22486,-0.75799 -0.92604,-0.39595 -1.50957,0.77941 -4.54746,1.11074 -5.74776,0.62691 z m 5.83678,-1.389 c 0.66472,-0.25508 0.83702,-1.17478 0.83702,-4.46784 0,-3.68518 -0.1308,-4.23833 -1.17608,-4.9704 -4.5702,-3.20104 -9.13463,3.68294 -5.39148,8.13136 1.3687,1.62659 3.58199,2.13135 5.73054,1.30688 z m 8.77454,0.98182 c -4.74867,-2.37218 -4.50541,-9.73859 0.39844,-12.06558 2.86531,-1.35966 6.10438,0.0258 7.17904,3.0707 0.29286,0.82976 -0.0978,0.92686 -3.75761,0.93414 -4.20465,0.008 -5.23947,0.30228 -5.09435,1.44708 0.0462,0.3638 0.1136,1.1485 0.15,1.74382 0.0364,0.59531 0.65064,1.66685 1.36502,2.38122 1.55208,1.55204 4.71581,1.76633 6.20336,0.42015 1.02794,-0.93026 1.86326,-0.67665 1.21674,0.36942 -0.39562,0.64011 -4.34333,2.59436 -5.27937,2.61346 -0.29104,0.006 -1.36261,-0.40555 -2.38127,-0.91441 z m 5.10291,-9.39848 c 0.4411,-1.14948 -0.7741,-2.37448 -2.35546,-2.37448 -1.29067,0 -3.80577,1.80947 -3.80577,2.73804 0,0.24029 1.31716,0.43691 2.92702,0.43691 2.12461,0 3.01125,-0.21944 3.23421,-0.80047 z m -131.838659,9.26701 c 0.17988,-0.29104 0.670177,-0.52916 1.089566,-0.52916 0.633282,0 0.762522,-1.48823 0.762522,-8.78067 0,-8.33562 -0.05364,-8.79467 -1.058336,-9.0574 -0.582086,-0.1522 -1.058337,-0.42884 -1.058337,-0.61472 0,-0.45221 3.616077,-1.56695 3.961724,-1.22132 0.149381,0.1494 0.271621,2.63432 0.271621,5.52206 v 5.25042 l 1.628104,-1.36994 c 2.21192,-1.86117 4.795733,-1.85115 6.271009,0.0244 0.908215,1.15459 1.096743,2.14455 1.096743,5.75902 0,4.0532 0.085,4.3938 1.190629,4.77133 1.082029,0.36945 1.033763,0.42641 -0.529167,0.62439 -0.945889,0.1198 -2.493705,0.1198 -3.439593,0 -1.562933,-0.198 -1.611197,-0.25494 -0.529168,-0.62439 1.091783,-0.37279 1.190627,-0.73379 1.190627,-4.34832 0,-4.88478 -0.522963,-5.98881 -2.836801,-5.98881 -2.92921,0 -4.042383,1.72156 -4.042383,6.25171 0,3.70303 0.03454,3.8023 1.32292,3.8023 0.727606,0 1.322921,0.23812 1.322921,0.52916 0,0.29899 -1.50972,0.52917 -3.470823,0.52917 -2.179132,0 -3.349111,-0.197 -3.143778,-0.52917 z m 26.458397,0 c 0.17989,-0.29104 0.78925,-0.52916 1.35415,-0.52916 0.97508,0 1.02711,-0.44099 1.02711,-8.70483 0,-7.72425 -0.10382,-8.76293 -0.92164,-9.22058 -1.14889,-0.64295 -0.79711,-1.01869 1.3571,-1.44952 l 1.68121,-0.33624 v 9.8556 c 0,9.5028 0.0379,9.85557 1.05834,9.85557 0.58209,0 1.05834,0.23812 1.05834,0.52916 0,0.29899 -1.50973,0.52917 -3.47083,0.52917 -2.17913,0 -3.34911,-0.197 -3.14378,-0.52917 z m 36.77718,0 c 0,-0.29104 0.60628,-0.52916 1.34726,-0.52916 1.10827,0 1.57673,-0.49285 2.64069,-2.77808 1.94655,-4.18099 1.74931,-4.64127 -1.42658,-3.32901 -0.6249,0.2582 -0.98707,0.02 -1.25549,-0.82566 -0.49882,-1.57162 1.01697,-2.69512 3.36745,-2.49599 l 1.76291,0.1494 1.864702,-5.01747 c 1.88905,-5.08294 2.53565,-6.2635 3.11389,-5.68529 0.176,0.17599 1.47326,3.46551 2.88289,7.31007 2.14138,5.84037 2.87359,7.24619 4.45139,8.54673 1.03864,0.85613 1.88845,1.8189 1.88845,2.13947 0,0.32058 -0.55113,0.0652 -1.22473,-0.56769 -1.65924,-1.55874 -1.99868,-1.4473 -1.3407,0.44011 0.34312,0.98427 1.03868,1.7122 1.82456,1.90944 2.52735,0.63431 1.18471,1.26234 -2.69872,1.26234 -2.29307,0 -3.96875,-0.22344 -3.96875,-0.52917 0,-0.29104 0.5953,-0.52916 1.3229,-0.52916 1.5016,0 1.57564,-0.35659 0.68876,-3.31671 -0.73916,-2.46708 -2.70219,-3.56235 -6.38472,-3.56235 h -2.290362 l -1.11828,3.43953 -1.11831,3.43953 h 1.53959 c 0.84676,0 1.539562,0.23812 1.539562,0.52916 0,0.30237 -1.587502,0.52917 -3.704172,0.52917 -2.11669,0 -3.70419,-0.2268 -3.70419,-0.52917 z M 104.99384,110.8397 c -0.91082,-2.39732 -1.85152,-4.1633 -2.09044,-3.92438 -0.45376,0.45375 -2.67733,6.598 -2.44427,6.75406 0.23936,0.1602 5.95108,1.65844 6.07264,1.59282 0.065,-0.035 -0.6271,-2.02519 -1.53793,-4.4225 z m 21.44126,12.32028 c -0.54938,-1.43166 1.02396,-3.47565 3.94373,-5.12344 2.66983,-1.50672 2.80557,-1.68608 2.65349,-3.50599 -0.1454,-1.74088 -0.3203,-1.93345 -1.89267,-2.08479 -1.54758,-0.149 -1.81648,0.0344 -2.52064,1.71975 -0.53335,1.27644 -1.13263,1.88653 -1.85309,1.88653 -1.0079,0 -1.02182,-0.0832 -0.2605,-1.55535 1.10912,-2.14477 2.80627,-3.20708 5.12365,-3.20708 3.10157,0 3.62423,0.92945 3.62423,6.44507 v 4.78199 l 1.35067,-0.33897 c 1.22808,-0.30824 1.29842,-0.2414 0.77512,0.73636 -0.68854,1.28655 -3.58453,1.49748 -4.04607,0.29472 -0.26406,-0.68809 -0.47856,-0.68809 -1.80921,0 -2.00624,1.03744 -4.68171,1.01179 -5.08871,-0.0488 z m 5.52545,-1.05262 c 0.82813,-0.58004 1.17609,-1.3628 1.17609,-2.64579 0,-2.29238 -0.68914,-2.29708 -2.96603,-0.0202 -2.68279,2.68274 -1.25984,4.80214 1.78994,2.66602 z m 32.92617,1.38954 c 0,-0.2433 0.47624,-0.5669 1.05832,-0.71911 0.94745,-0.24776 1.05835,-0.72179 1.05835,-4.52392 0,-3.85048 -0.1038,-4.28011 -1.11181,-4.60001 -1.0457,-0.3319 -1.01426,-0.41217 0.52919,-1.35078 0.90252,-0.54885 1.64096,-1.25358 1.64096,-1.56608 0,-0.31249 0.25886,-0.40817 0.57526,-0.21263 0.3164,0.19559 0.45776,0.80488 0.31412,1.35412 -0.32424,1.2399 -0.25854,1.23818 2.28563,-0.0598 2.59415,-1.32342 3.22609,-1.3221 4.91987,0.01 l 1.35841,1.0685 2.13718,-1.11392 c 1.51765,-0.79103 2.60447,-1.01131 3.74923,-0.75987 2.34113,0.51419 3.18117,2.53376 3.18117,7.64787 0,3.43351 0.154,4.25955 0.79376,4.25955 0.43656,0 0.79374,0.23812 0.79374,0.52916 0,0.29103 -1.30968,0.52917 -2.91042,0.52917 -2.87481,0 -3.90593,-0.67457 -1.85209,-1.21164 0.93758,-0.24518 1.05834,-0.72179 1.05834,-4.17726 0,-5.65306 -1.43432,-7.26412 -5.01489,-5.63272 -1.65992,0.75629 -1.96766,1.85341 -1.76026,6.27551 0.145,3.08973 0.27654,3.43969 1.35118,3.59231 2.55321,0.36259 1.01104,1.1538 -2.24897,1.1538 -1.94028,0 -3.43959,-0.23066 -3.43959,-0.52917 0,-0.29104 0.47625,-0.52916 1.05835,-0.52916 0.9751,0 1.05832,-0.35277 1.05832,-4.48565 0,-4.1537 -0.0942,-4.54737 -1.27282,-5.31962 -1.14157,-0.74797 -1.46897,-0.75201 -3.17501,-0.0392 l -1.90219,0.79477 v 4.30981 c 0,3.86479 0.1092,4.3384 1.05835,4.58658 1.98394,0.51879 1.06408,0.9853 -2.11667,1.07346 -1.74626,0.0484 -3.17501,-0.111 -3.17501,-0.35435 z m 37.71642,-11.14898 c -0.0438,-0.58207 0.1436,-1.05831 0.41656,-1.05831 0.27296,0 0.49628,0.47624 0.49628,1.05831 0,0.58209 -0.1874,1.05832 -0.41656,1.05832 -0.2291,0 -0.45244,-0.47623 -0.49628,-1.05832 z m 1.58751,0 c -0.0438,-0.58207 0.1436,-1.05831 0.41656,-1.05831 0.27296,0 0.49992,0.29764 0.50438,0.66145 0.006,0.44096 0.1792,0.39686 0.52106,-0.13219 0.4148,-0.64185 0.51452,-0.56591 0.52106,0.39687 0.01,1.53758 -1.84776,1.66282 -1.96306,0.1322 z" />
</svg>
