<?xml version="1.0" encoding="UTF-8"?>
<svg width="380px" height="379px" viewBox="0 0 380 379" version="1.1" xmlns="http://www.w3.org/2000/svg" xmlns:xlink="http://www.w3.org/1999/xlink">
    <!-- Generator: Sketch 54.1 (76490) - https://sketchapp.com -->
    <title>Group</title>
    <desc>Created with Sketch.</desc>
    <defs>
        <filter x="-4.8%" y="-4.8%" width="109.6%" height="109.6%" filterUnits="objectBoundingBox" id="filter-1">
            <feOffset dx="0" dy="2" in="SourceAlpha" result="shadowOffsetOuter1"></feOffset>
            <feGaussianBlur stdDeviation="3.5" in="shadowOffsetOuter1" result="shadowBlurOuter1"></feGaussianBlur>
            <feColorMatrix values="0 0 0 0 0   0 0 0 0 0   0 0 0 0 0  0 0 0 0.5 0" type="matrix" in="shadowBlurOuter1" result="shadowMatrixOuter1"></feColorMatrix>
            <feMerge>
                <feMergeNode in="shadowMatrixOuter1"></feMergeNode>
                <feMergeNode in="SourceGraphic"></feMergeNode>
            </feMerge>
        </filter>
    </defs>
    <g id="Page-1" stroke="none" stroke-width="1" fill="none" fill-rule="evenodd">
        <g id="Group" filter="url(#filter-1)" transform="translate(7.000000, 5.000000)">
            <path d="M94.6691275,194 C175.387127,194 255.616127,194 336.094127,194 C336.287127,195.709 336.509127,197.244 336.627127,198.787 C337.136127,205.475 341.133127,210.503 344.700127,215.716 C347.100127,219.222 349.473127,222.776 352.206127,226.015 C354.281127,228.475 356.622127,230.941 359.344127,232.571 C363.971127,235.341 366.028127,239.138 365.732127,244.336 C365.502127,248.381 365.214127,252.431 364.715127,256.449 C364.388127,259.073 363.671127,261.663 361.187127,263.418 C358.661127,262.072 358.814127,259.519 358.570127,257.448 C358.199127,254.316 356.766127,252.023 354.863127,249.605 C353.369127,247.708 351.910127,244.847 352.205127,242.652 C353.119127,235.848 349.099127,231.826 345.158127,227.491 C342.506127,224.573 340.205127,221.337 337.563127,218.409 C336.438127,217.162 334.843127,216.34 333.771127,215.552 C331.015127,216.298 330.162127,217.865 329.951127,219.886 C329.217127,226.93 329.346127,233.933 331.168127,240.826 C333.927127,251.258 336.481127,261.753 339.590127,272.081 C341.232127,277.536 341.004127,282.543 338.665127,287.591 C338.416127,288.129 338.243127,288.795 337.823127,289.148 C333.621127,292.668 333.869127,297.484 333.830127,302.271 C333.756127,311.584 333.739127,320.903 333.371127,330.206 C333.270127,332.762 332.349127,335.441 331.206127,337.769 C328.985127,342.292 326.278127,346.575 323.883127,351.017 C320.502127,357.289 316.524127,363.163 308.877127,364.139 C303.444127,364.832 297.797127,364.782 292.360127,364.121 C289.465127,363.77 286.491127,361.811 284.125127,359.876 C280.674127,357.056 280.634127,354.635 283.409127,351.158 C284.878127,349.318 286.763127,347.807 288.471127,346.159 C292.105127,342.654 295.834127,339.24 299.327127,335.6 C300.241127,334.647 300.725127,333.037 300.887127,331.667 C301.117127,329.718 300.918127,327.709 300.810127,325.731 C300.578127,321.498 300.997127,317.265 303.132127,313.641 C306.823127,307.379 306.795127,300.649 306.583127,293.797 C306.385127,287.36 305.928127,280.911 306.147127,274.487 C306.418127,266.547 304.043127,259.551 300.195127,252.782 C297.372127,247.815 295.043127,242.569 292.387127,237.504 C291.214127,235.267 289.464127,233.549 286.967127,232.899 C283.965127,234.883 283.364127,235.962 284.392127,239.081 C285.626127,242.823 286.832127,246.66 288.731127,250.077 C292.128127,256.19 290.960127,264.838 284.990127,269.57 C278.262127,274.903 272.172127,281.049 265.922127,286.965 C265.028127,287.812 264.400127,289.334 264.327127,290.583 C264.092127,294.624 263.778127,298.726 264.220127,302.725 C264.935127,309.198 262.770127,314.297 257.748127,318.085 C251.653127,322.681 248.286127,329.137 244.911127,335.65 C243.226127,338.902 241.765127,342.306 239.751127,345.341 C237.532127,348.684 234.689127,351.477 230.154127,351.429 C225.320127,351.378 220.484127,351.475 215.653127,351.371 C212.425127,351.301 209.812127,349.707 207.494127,347.565 C204.689127,344.974 204.048127,342.882 206.104127,339.71 C209.485127,334.49 213.215127,329.492 216.894127,324.471 C223.966127,314.818 231.127127,305.23 238.202127,295.579 C240.301127,292.715 241.216127,289.465 241.376127,285.867 C241.473127,283.661 241.846127,281.164 242.987127,279.362 C247.120127,272.829 246.468127,266.292 243.392127,259.824 C239.145127,250.896 234.596127,242.112 230.116127,233.297 C228.054127,229.239 223.237127,226.95 217.939127,227.798 C212.292127,228.702 206.726127,230.099 201.089127,231.079 C189.367127,233.118 177.541127,234.108 165.644127,234.285 C164.163127,234.307 162.540127,234.19 161.240127,234.743 C159.328127,235.557 157.074127,236.515 155.959127,238.107 C148.057127,249.389 142.995127,261.909 141.471127,275.617 C140.622127,283.263 140.395127,290.966 144.340127,298.211 C145.805127,300.903 146.419127,304.216 146.770127,307.319 C147.267127,311.698 149.625127,314.602 153.011127,316.915 C154.966127,318.252 157.044127,319.411 159.091127,320.609 C163.647127,323.273 164.176127,325.241 160.703127,329.171 C154.349127,336.361 147.810127,343.388 141.265127,350.406 C138.996127,352.838 136.465127,352.581 134.463127,349.991 C134.040127,349.444 133.751127,348.599 133.205127,348.381 C131.815127,347.826 130.256127,347.13 128.879127,347.319 C128.075127,347.43 127.098127,349.057 126.887127,350.136 C126.454127,352.345 126.379127,354.644 126.354127,356.908 C126.328127,359.412 124.980127,360.662 122.713127,360.677 C111.713127,360.748 100.711127,360.775 89.7111275,360.642 C86.2861275,360.601 84.4181275,358.181 85.1621275,354.813 C85.7071275,352.345 86.4971275,349.761 87.8621275,347.677 C92.1951275,341.061 96.7861275,334.611 101.405127,328.188 C103.742127,324.937 105.168127,321.513 105.026127,317.444 C104.801127,311.038 105.615127,304.863 108.605127,299.009 C110.769127,294.773 110.930127,290.052 110.687127,285.351 C110.108127,274.175 109.633127,262.992 108.913127,251.826 C108.725127,248.902 107.918127,245.994 107.177127,243.136 C104.300127,232.035 101.318127,220.961 98.4111275,209.867 C97.2831275,205.561 96.2441275,201.232 95.1871275,196.908 C94.9811275,196.068 94.8791275,195.202 94.6691275,194" id="feet" fill="#2D3A82"></path>
            <path d="M14.988064,6.63 C18.244064,7.44 19.211064,9.172 20.036064,11.193 C23.028064,18.521 26.017064,25.854 29.228064,33.087 C30.382064,35.685 31.956064,38.169 33.728064,40.395 C34.948064,41.929 36.839064,42.928 38.133064,43.935 C41.854064,42.599 42.931064,41.043 43.016064,37.421 C43.121064,32.968 43.028064,28.503 43.320064,24.063 C43.447064,22.148 44.048064,20.142 44.915064,18.42 C47.405064,13.475 50.083064,8.621 52.817064,3.804 C53.639064,2.354 54.885064,1.144 55.797064,0 C58.987064,0.789 60.265064,2.861 60.997064,4.912 C64.212064,13.913 67.568064,22.9 70.023064,32.118 C70.977064,35.696 69.829064,39.888 69.382064,43.771 C68.778064,49.026 72.097064,53.86 77.238064,55.031 C87.481064,57.363 97.593064,60.307 106.883064,65.198 C112.250064,68.024 117.106064,71.966 121.815064,75.862 C130.727064,83.234 139.357064,90.947 148.124064,98.495 C154.409064,103.906 161.973064,105.796 170.013064,106.523 C188.502064,108.194 205.817064,103.642 223.087064,97.607 C239.181064,91.984 255.671064,87.491 272.019064,82.606 C275.215064,81.651 278.550064,81.151 281.831064,80.489 C289.014064,79.042 295.421064,81.786 301.825064,84.341 C306.223064,86.096 310.472064,88.236 314.896064,89.916 C319.545064,91.682 322.454064,95.394 325.971064,98.572 C333.915064,105.753 338.439064,114.83 341.641064,124.682 C343.717064,131.071 343.600064,137.721 342.711064,144.386 C341.131064,156.221 339.747064,168.082 338.258064,180.116 C255.534064,180.116 173.434064,180.116 91.725064,180.116 C88.958064,174.767 86.537064,169.453 83.556064,164.475 C79.207064,157.211 73.758064,150.846 66.474064,146.274 C62.263064,143.632 59.893064,143.905 56.163064,147.249 C51.833064,151.131 47.677064,155.267 43.012064,158.705 C31.851064,166.933 19.880064,166.868 7.67506398,161.129 C1.61906398,158.283 -0.675936018,153.387 0.169063982,146.803 C1.23706398,138.474 2.32106398,130.158 5.67606398,122.353 C6.14206398,121.268 6.73606398,120.225 7.37206398,119.227 C9.96206398,115.166 10.700064,110.696 10.913064,105.942 C11.236064,98.75 11.813064,91.554 12.668064,84.405 C13.176064,80.162 15.097064,76.313 17.723064,72.873 C18.441064,71.933 19.102064,70.932 19.667064,69.893 C21.837064,65.907 20.981064,62.454 17.720064,59.242 C12.309064,53.91 7.64606398,47.947 6.25606398,40.243 C4.86006398,32.504 5.98906398,24.879 8.47506398,17.464 C9.19506398,15.316 9.92106398,13.107 11.076064,11.184 C12.134064,9.421 13.773064,8.007 14.988064,6.63" id="back" fill="#2D3A82"></path>
            <polyline id="star1" fill="#FFFFFF" points="128.976 124 134.372 140.731 151.952 140.693 137.707 150.995 143.176 167.703 128.976 157.339 114.776 167.703 120.245 150.995 106 140.693 123.58 140.731 128.976 124"></polyline>
            <polyline id="star2" fill="#FFFFFF" points="185.976 124 191.372 140.731 208.952 140.693 194.707 150.995 200.176 167.703 185.976 157.339 171.776 167.703 177.245 150.995 163 140.693 180.58 140.731 185.976 124"></polyline>
            <polyline id="star3" fill="#FFFFFF" points="242.976 124 248.372 140.731 265.952 140.693 251.707 150.995 257.176 167.703 242.976 157.339 228.776 167.703 234.245 150.995 220 140.693 237.58 140.731 242.976 124"></polyline>
            <polyline id="star4" fill="#FFFFFF" points="299.976 124 305.372 140.731 322.952 140.693 308.707 150.995 314.176 167.703 299.976 157.339 285.776 167.703 291.245 150.995 277 140.693 294.58 140.731 299.976 124"></polyline>
        </g>
    </g>
</svg>