<?xml version="1.0" encoding="UTF-8"?>
<!-- This graphic originated on the News in a Rush presidential bulletin -->
<svg width="577px" height="510px" viewBox="0 0 577 510" version="1.1" xmlns="http://www.w3.org/2000/svg" xmlns:xlink="http://www.w3.org/1999/xlink">
    <!-- Generator: Sketch 54.1 (76490) - https://sketchapp.com -->
    <title>gop-logo</title>
    <desc>Created with Sketch.</desc>
    <defs>
        <filter x="-3.1%" y="-3.5%" width="106.2%" height="107.1%" filterUnits="objectBoundingBox" id="filter-1">
            <feOffset dx="0" dy="2" in="SourceAlpha" result="shadowOffsetOuter1"></feOffset>
            <feGaussianBlur stdDeviation="3.5" in="shadowOffsetOuter1" result="shadowBlurOuter1"></feGaussianBlur>
            <feColorMatrix values="0 0 0 0 0   0 0 0 0 0   0 0 0 0 0  0 0 0 0.5 0" type="matrix" in="shadowBlurOuter1" result="shadowMatrixOuter1"></feColorMatrix>
            <feMerge>
                <feMergeNode in="shadowMatrixOuter1"></feMergeNode>
                <feMergeNode in="SourceGraphic"></feMergeNode>
            </feMerge>
        </filter>
    </defs>
    <g id="Page-1" stroke="none" stroke-width="1" fill="none" fill-rule="evenodd">
        <g id="gop-logo" filter="url(#filter-1)" transform="translate(7.000000, 5.000000)">
            <path d="M0.556904,171.24351 C0.559397,207.70783 1.8076,210.64466 23.107114,210.5811 C44.176149,210.51593 460.02517,210.07625 460.33062,210.07999 C476.60624,210.28225 480.95354,206.32602 480.87636,178.50969 C480.47315,32.934967 388.17215,-0.0715178 239.08801,0.864154 C111.30486,1.666139 0.547142,30.413678 0.556904,171.24351 Z" id="back" fill="#D9252A"></path>
            <polygon id="star1" fill="#FFFFFF" points="102.283404 174.50076 87.835634 131.03723 42.233145 130.87169 79.104804 103.70006 65.170302 60.278369 102.406024 86.948911 139.396514 60.278367 125.537784 103.93329 162.333674 130.87168 116.532794 131.18137"></polygon>
            <polygon id="star2" fill="#FFFFFF" points="242.09452 173.98365 227.64675 130.52012 182.044261 130.35458 218.91592 103.18295 204.981418 59.761259 242.21714 86.431801 279.20763 59.761257 265.3489 103.41618 302.14479 130.35457 256.34391 130.66426"></polygon>
            <polygon id="star3" fill="#FFFFFF" points="381.65552 174.48476 367.20775 131.02123 321.605261 130.85569 358.47692 103.68406 344.542418 60.262369 381.77814 86.932911 418.76863 60.262367 404.9099 103.91729 441.70579 130.85568 395.90491 131.16537"></polygon>
            <path d="M19.599303,225.11346 C6.424493,225.03797 1.809694,228.62127 1.809693,239.89637 C1.809692,263.21979 0.044821,443.35724 1.05802,472.66465 C1.456401,484.18805 7.82382,487.58604 16.342051,487.69812 C35.386098,487.9487 82.74207,488.57236 100.27894,488.19923 C112.30572,487.94867 117.4834,482.19928 118.06855,464.89735 C118.61714,448.67635 117.81109,421.79733 118.31911,397.74784 C118.49041,389.63838 121.32581,383.7166 129.59422,383.46604 C150.55076,382.83098 231.10246,382.82034 247.10586,383.21548 C267.40105,383.7166 270.6583,383.46604 271.15942,404.5129 C271.75492,429.52399 271.66053,444.85272 270.90886,464.14567 C270.10578,484.75812 276.92225,486.69588 287.94679,486.94644 C304.22885,487.31649 341.81713,486.41796 360.60858,486.69589 C385.59327,487.0543 385.12766,479.44084 385.41381,446.85718 C385.54301,432.82429 385.43448,383.94416 384.91269,361.6675 C384.78308,356.13402 387.66935,352.20879 391.4272,352.1463 C406.74639,351.89573 409.93584,391.99116 413.72685,412.02964 C427.78071,486.31543 460.26722,495.7904 489.89645,495.96653 C527.03812,496.19922 562.42875,465.40626 562.55824,402.00732 C562.57773,392.46147 560.55377,384.21772 553.53815,384.21771 C522.21024,384.21768 540.50466,384.67694 523.97232,384.21771 C515.20279,383.96715 507.4355,385.21994 509.18941,398.75007 C510.94331,412.28019 511.7143,437.49947 494.65704,438.08765 C487.39087,438.33821 481.62804,433.0765 481.62804,418.29358 C481.62804,403.51067 480.58692,252.91649 480.12469,240.8986 C479.87413,234.38409 479.62357,224.61234 466.59456,224.8629 C450.31156,225.18856 46.013912,225.25665 19.599303,225.11346 Z" id="trunk" fill="#D9252A"></path>
        </g>
    </g>
</svg>