<?xml version="1.0" encoding="UTF-8"?>
<svg width="660px" height="660px" viewBox="0 0 660 660" version="1.1" xmlns="http://www.w3.org/2000/svg" xmlns:xlink="http://www.w3.org/1999/xlink">
    <!-- Generator: Sketch 54.1 (76490) - https://sketchapp.com -->
    <title>Combined Shape Copy</title>
    <desc>Created with Sketch.</desc>
    <g id="Page-1" stroke="none" stroke-width="1" fill="none" fill-rule="evenodd">
        <path d="M330,660 C147.746033,660 0,512.253967 0,330 C0,147.746033 147.746033,0 330,0 C512.253967,0 660,147.746033 660,330 C660,512.253967 512.253967,660 330,660 Z M330,605 C481.878306,605 605,481.878306 605,330 C605,178.121694 481.878306,55 330,55 C178.121694,55 55,178.121694 55,330 C55,481.878306 178.121694,605 330,605 Z M270.94697,437.569316 C274.57795,437.899899 278.786523,438.147832 283.572815,438.313123 C288.359107,438.478414 294.053059,438.561058 300.654841,438.561058 C339.275267,438.561058 367.910067,428.809026 386.560102,409.304668 C405.210136,389.80031 414.535014,362.858254 414.535014,328.47769 C414.535014,292.444216 405.622742,265.171582 387.79793,246.658971 C369.973118,228.14636 341.750923,218.890193 303.130497,218.890193 C297.849071,218.890193 292.402683,218.972838 286.791168,219.138129 C281.179653,219.30342 275.898307,219.716642 270.94697,220.377806 L270.94697,437.569316 Z M494.251135,328.47769 C494.251135,358.230101 489.629956,384.180425 480.387461,406.329442 C471.144966,428.478458 458.024121,446.825503 441.024532,461.371126 C424.024943,475.916749 403.312162,486.825802 378.885569,494.098613 C354.458975,501.371425 327.06199,505.007776 296.693792,505.007776 C282.830049,505.007776 266.655926,504.429266 248.170936,503.272227 C229.685946,502.115189 211.531317,499.718503 193.706505,496.082098 L193.706505,161.369154 C211.531317,158.063331 230.098551,155.831934 249.408764,154.674895 C268.718976,153.517857 285.305705,152.939347 299.169448,152.939347 C328.547378,152.939347 355.201674,156.245121 379.133134,162.856767 C403.064594,169.468414 423.612333,179.881602 440.776967,194.096642 C457.9416,208.311683 471.144966,226.493438 480.387461,248.642455 C489.629956,270.791472 494.251135,297.402951 494.251135,328.47769 Z" id="Combined-Shape-Copy" fill="#FFFFFF"></path>
    </g>
</svg>